#!OML:ASF F:\VICON\USERDATA\INSTALL\rory3\rory3.ASF
:FULLY-SPECIFIED
:DEGREES
369
root -0.246274 18.2196 39.2685 -5.01641 1.59755 -1.46665
lowerback 17.5629 -0.285729 0.802572
upperback 0.703734 0.051991 2.81447
thorax -9.11608 0.0587565 2.58219
lowerneck -13.0595 0.682507 -0.678151
upperneck 29.1125 2.99707 -5.97666
head 11.7783 0.534069 -1.69148
rclavicle -1.44119e-014 -1.74931e-014
rhumerus -28.0553 -16.0865 -80.1174
rradius 33.3422
rwrist 6.9988
rhand -9.60102 8.97465
rfingers 7.12502
rthumb 16.3678 -20.3547
lclavicle -1.44119e-014 -1.74931e-014
lhumerus -34.6002 -0.371262 86.8648
lradius 67.7862
lwrist 24.0248
lhand -10.7556 58.2908
lfingers 7.12502
lthumb 15.2559 87.7082
rfemur -7.77196 3.04259 31.6737
rtibia 30.0963
rfoot -14.859 -12.2144
rtoes 25.2531
lfemur -17.3218 -0.860771 -16.7268
ltibia 67.139
lfoot 8.42805 -5.74208
ltoes -7.46031
370
root -0.262062 18.1823 39.4362 -4.96069 0.970087 -2.17204
lowerback 17.9192 -0.267374 1.38779
upperback 0.723896 0.217778 2.9566
thorax -9.29908 0.116764 2.36672
lowerneck -13.9351 0.882544 -0.401001
upperneck 29.4672 3.24887 -5.93984
head 12.1119 0.657468 -1.69796
rclavicle 1.68967e-015 -7.95139e-016
rhumerus -28.1223 -16.4282 -80.2912
rradius 33.1847
rwrist 5.78887
rhand -9.56479 8.59746
rfingers 7.12502
rthumb 16.4027 -20.729
lclavicle 1.68967e-015 -7.95139e-016
lhumerus -34.358 0.28266 86.835
lradius 67.4138
lwrist 25.0678
lhand -10.536 59.1774
lfingers 7.12502
lthumb 15.4674 88.5786
rfemur -5.94729 3.45051 32.7158
rtibia 29.9549
rfoot -17.1556 -11.0466
rtoes 30.9806
lfemur -18.6791 -0.380817 -15.8666
ltibia 67.3169
lfoot 5.8063 -4.03307
ltoes -12.3739
371
root -0.258364 18.2133 39.6196 -4.27004 0.878007 -0.979236
lowerback 17.7838 -0.213734 0.587637
upperback -0.139302 0.0967326 2.46974
thorax -10.1723 0.0906004 2.33735
lowerneck -12.4257 0.968477 -0.249318
upperneck 29.4945 3.26724 -5.8557
head 11.8085 0.719487 -1.69145
rclavicle 5.86415e-015 6.36111e-015
rhumerus -29.8908 -16.4747 -79.8878
rradius 33.2731
rwrist 4.7222
rhand -10.5313 10.3707
rfingers 7.12502
rthumb 15.472 -19.0302
lclavicle 5.86415e-015 6.36111e-015
lhumerus -35.7575 0.802635 86.8448
lradius 67.3865
lwrist 25.8218
lhand -10.1857 60.1843
lfingers 7.12502
lthumb 15.8048 89.5592
rfemur -6.56804 3.26735 31.2561
rtibia 29.6899
rfoot -16.3521 -11.1017
rtoes 28.7225
lfemur -20.1414 -0.596379 -17.5084
ltibia 66.7604
lfoot 3.76121 -1.90888
ltoes -15.2373
372
root -0.254872 18.2162 39.8196 -4.25905 0.558907 -1.12224
lowerback 17.7632 -0.226025 1.09463
upperback -0.488387 0.184052 2.36495
thorax -10.5506 0.104655 1.9166
lowerneck -11.3635 0.998786 -0.420112
upperneck 29.4161 3.20017 -5.46218
head 11.5448 0.738896 -1.52417
rclavicle 1.46852e-014 -1.11319e-014
rhumerus -31.0839 -16.7983 -79.4618
rradius 33.1001
rwrist 3.96683
rhand -10.3283 10.77
rfingers 7.12502
rthumb 15.6675 -18.6156
lclavicle 1.46852e-014 -1.11319e-014
lhumerus -36.4739 1.14103 86.9178
lradius 67.0765
lwrist 26.5401
lhand -10.2004 60.9552
lfingers 7.12502
lthumb 15.7906 -90.3312
rfemur -5.98206 2.91872 31.3273
rtibia 29.573
rfoot -16.5474 -10.6129
rtoes 27.2186
lfemur -20.8615 -0.709115 -17.5263
ltibia 66.1856
lfoot 2.01565 -0.516099
ltoes -17.2123
373
root -0.272255 18.1967 40.0136 -4.5543 -0.205435 -1.8424
lowerback 17.7174 -0.140312 1.68422
upperback -0.245886 0.433737 2.57239
thorax -10.2592 0.197139 1.73742
lowerneck -11.5277 1.05332 -0.54896
upperneck 29.4552 3.24044 -5.21633
head 11.5881 0.768375 -1.4055
rclavicle 8.39865e-015 1.03368e-014
rhumerus -31.131 -17.0836 -79.3268
rradius 32.7046
rwrist 2.96321
rhand -9.82079 10.8456
rfingers 7.12502
rthumb 16.1562 -18.501
lclavicle 8.39865e-015 1.03368e-014
lhumerus -36.1579 1.66072 86.9785
lradius 66.626
lwrist 27.3125
lhand -10.4486 61.41
lfingers 7.12502
lthumb 15.5517 -90.8047
rfemur -4.66435 3.38811 32.3285
rtibia 29.1712
rfoot -16.8469 -10.5807
rtoes 26.3167
lfemur -21.4298 -0.331243 -16.6452
ltibia 65.6096
lfoot 0.589648 0.299961
ltoes -18.0254
374
root -0.280454 18.1817 40.1829 -4.15895 -0.499819 -1.38433
lowerback 17.3483 -0.127851 1.23341
upperback -0.211761 0.325736 2.39187
thorax -10.0099 0.163203 1.82018
lowerneck -12.0369 1.18604 -0.483371
upperneck 29.6226 3.39015 -5.06233
head 11.7605 0.848634 -1.34059
rclavicle 2.65874e-015 6.36111e-015
rhumerus -31.063 -17.4019 -79.338
rradius 32.3331
rwrist 2.06373
rhand -9.31427 11.2847
rfingers 7.12502
rthumb 16.6439 -18.0217
lclavicle 2.65874e-015 6.36111e-015
lhumerus -35.7903 2.29325 86.8536
lradius 66.4891
lwrist 27.9388
lhand -10.7981 61.9579
lfingers 7.12502
lthumb 15.215 -91.3784
rfemur -4.16393 3.21754 31.8148
rtibia 28.6719
rfoot -17.0703 -10.0698
rtoes 27.1285
lfemur -22.7447 -0.546623 -17.2957
ltibia 64.7504
lfoot -0.640563 1.3772
ltoes -17.0633
375
root -0.297849 18.1554 40.3312 -4.24412 -1.37329 -2.45231
lowerback 18.0739 -0.134505 2.10674
upperback -0.304568 0.552782 2.6468
thorax -10.5272 0.232734 1.55154
lowerneck -12.1773 1.41485 -0.204885
upperneck 29.7334 3.65596 -5.05528
head 11.8452 0.993871 -1.35143
rclavicle -2.93207e-015 -3.18055e-015
rhumerus -31.2741 -17.5046 -79.2998
rradius 31.9176
rwrist 1.45261
rhand -8.6029 11.0849
rfingers 7.12502
rthumb 17.3287 -18.1626
lclavicle -2.93207e-015 -3.18055e-015
lhumerus -35.7557 3.04857 86.5895
lradius 66.4485
lwrist 28.2588
lhand -10.9807 62.6738
lfingers 7.12502
lthumb 15.0391 -92.1076
rfemur -3.26907 3.86672 33.2293
rtibia 28.2202
rfoot -17.1332 -10.1126
rtoes 28.0171
lfemur -23.7358 -0.168092 -15.989
ltibia 63.913
lfoot -1.70942 1.80163
ltoes -16.3947
376
root -0.29462 18.1726 40.5418 -3.92481 -1.67766 -2.18458
lowerback 17.1827 -0.187196 2.11766
upperback -0.0217656 0.419298 2.45544
thorax -9.70316 0.165452 1.35809
lowerneck -12.7803 1.63112 0.17128
upperneck 29.5549 3.91739 -5.20147
head 11.9179 1.12728 -1.42977
rclavicle 3.03147e-015 -3.10104e-014
rhumerus -30.7919 -17.9503 -79.2546
rradius 31.1638
rwrist 1.22803
rhand -7.79879 11.7088
rfingers 7.12502
rthumb 18.1024 -17.4688
lclavicle 3.03147e-015 -3.10104e-014
lhumerus -35.0343 3.77687 86.4122
lradius 66.3103
lwrist 28.5503
lhand -11.2664 62.7873
lfingers 7.12502
lthumb 14.7638 -92.2414
rfemur -2.66169 3.38343 32.7572
rtibia 27.9785
rfoot -17.5846 -9.20788
rtoes 28.3131
lfemur -24.4219 -0.545441 -16.4735
ltibia 62.3809
lfoot -2.71421 2.53798
ltoes -14.4122
377
root -0.290326 18.1795 40.7307 -3.64305 -2.00757 -1.85121
lowerback 16.013 -0.104672 2.18563
upperback 0.37967 0.461489 2.23698
thorax -8.59988 0.182058 1.05895
lowerneck -12.7995 1.63919 0.240122
upperneck 29.0528 3.89136 -5.23946
head 11.7246 1.12836 -1.45212
rclavicle 6.85807e-015 -1.59028e-015
rhumerus -30.3215 -18.7581 -78.9419
rradius 30.528
rwrist 1.3448
rhand -6.80797 12.634
rfingers 7.12502
rthumb 19.0555 -16.4525
lclavicle 6.85807e-015 -1.59028e-015
lhumerus -34.0795 4.20053 86.4525
lradius 66.0769
lwrist 28.7861
lhand -11.5838 62.8907
lfingers 7.12502
lthumb 14.4581 -92.3671
rfemur -1.95806 2.85927 32.2046
rtibia 27.4356
rfoot -17.6394 -8.43056
rtoes 27.7139
lfemur -25.1738 -0.976218 -17.0063
ltibia 60.7685
lfoot -3.40491 3.09549
ltoes -14.8898
378
root -0.292714 18.1807 40.915 -3.37161 -2.40336 -1.64361
lowerback 16.9988 -0.0496762 2.13226
upperback -0.683003 0.587897 2.1379
thorax -10.3285 0.231805 0.968626
lowerneck -11.5305 1.66711 0.0586214
upperneck 29.3586 3.90206 -5.01399
head 11.5749 1.15602 -1.34745
rclavicle -3.47873e-016 1.98785e-014
rhumerus -32.3985 -18.4761 -78.0773
rradius 30.7882
rwrist 1.56229
rhand -5.38083 10.2796
rfingers 7.12502
rthumb 20.4275 -18.6659
lclavicle -3.47873e-016 1.98785e-014
lhumerus -35.5335 4.71701 86.28
lradius 66.1798
lwrist 28.9863
lhand -11.7892 63.2362
lfingers 7.12502
lthumb 14.2601 -92.7266
rfemur -1.25875 2.444 31.846
rtibia 26.9919
rfoot -17.6271 -7.80352
rtoes 26.601
lfemur -25.8505 -1.2792 -17.3275
ltibia 58.9436
lfoot -3.91213 3.44378
ltoes -16.0018
379
root -0.315951 18.171 41.1071 -3.47618 -3.41181 -2.54048
lowerback 17.3084 0.100397 2.77113
upperback -0.779079 0.959955 2.38508
thorax -10.6097 0.378628 0.782118
lowerneck -11.2428 1.77608 0.226817
upperneck 29.3303 4.00849 -5.0106
head 11.5111 1.22757 -1.3631
rclavicle 3.70236e-015 -8.74653e-015
rhumerus -32.9993 -18.3512 -77.8359
rradius 30.8861
rwrist 1.87222
rhand -4.49844 9.03704
rfingers 7.12502
rthumb 21.2752 -19.8153
lclavicle 3.70236e-015 -8.74653e-015
lhumerus -35.7046 5.45173 86.0193
lradius 66.2639
lwrist 29.1796
lhand -11.8491 63.3701
lfingers 7.12502
lthumb 14.2024 -92.8646
rfemur -0.193635 3.2679 33.0711
rtibia 26.7033
rfoot -17.7913 -7.94494
rtoes 26.3096
lfemur -26.1018 -0.902515 -16.1645
ltibia 57.1888
lfoot -4.59962 3.76635
ltoes -16.0042
380
root -0.324949 18.146 41.2858 -3.21847 -3.96664 -2.69667
lowerback 17.5476 0.107083 2.8936
upperback -1.01677 1.00946 2.33288
thorax -11.0104 0.38855 0.645091
lowerneck -11.4063 1.97657 0.587154
upperneck 29.4873 4.23592 -5.05909
head 11.6219 1.3567 -1.41444
rclavicle 3.42904e-015 -5.96354e-015
rhumerus -33.3767 -18.1413 -77.7308
rradius 30.4195
rwrist 2.20495
rhand -4.0033 9.4823
rfingers 7.12502
rthumb 21.7508 -19.3156
lclavicle 3.42904e-015 -5.96354e-015
lhumerus -35.9628 6.39541 85.5201
lradius 66.5845
lwrist 29.3713
lhand -11.8307 63.2505
lfingers 7.12502
lthumb 14.2202 -92.7437
rfemur 0.502415 3.46619 33.2528
rtibia 26.1772
rfoot -17.9007 -7.85034
rtoes 26.314
lfemur -26.7517 -0.945602 -15.9969
ltibia 55.3007
lfoot -5.34067 4.6581
ltoes -19.6562
381
root -0.324681 18.115 41.4548 -2.92842 -4.52319 -2.88409
lowerback 16.511 0.116881 3.24324
upperback -0.185294 1.00086 2.27986
thorax -9.48624 0.38412 0.384428
lowerneck -12.7092 2.12662 0.719698
upperneck 28.9702 4.40705 -5.07325
head 11.6964 1.43293 -1.40209
rclavicle 9.59136e-015 -3.85642e-014
rhumerus -31.6901 -18.4929 -78.085
rradius 29.7679
rwrist 2.94612
rhand -3.25589 9.8443
rfingers 7.12502
rthumb 22.4684 -18.8687
lclavicle 9.59136e-015 -3.85642e-014
lhumerus -34.1038 7.54363 85.2482
lradius 66.6
lwrist 29.7629
lhand -11.9609 62.9337
lfingers 7.12502
lthumb 14.0946 -92.4357
rfemur 1.20401 3.51938 33.4007
rtibia 25.52
rfoot -17.8062 -7.88625
rtoes 25.2256
lfemur -27.3185 -1.01209 -15.8166
ltibia 53.1788
lfoot -5.8351 4.53626
ltoes -23.1558
382
root -0.362215 18.1399 41.6521 -3.13379 -5.71512 -3.21187
lowerback 17.1714 0.405065 3.06262
upperback -0.459452 1.41182 2.47757
thorax -10.1687 0.584841 0.598783
lowerneck -11.9611 2.19582 0.664166
upperneck 28.7456 4.4582 -4.95109
head 11.4526 1.48165 -1.34459
rclavicle 6.65929e-015 -3.10104e-014
rhumerus -32.4617 -18.2648 -77.5068
rradius 29.4245
rwrist 3.89478
rhand -2.48436 9.86371
rfingers 7.12502
rthumb 23.2088 -18.7579
lclavicle 6.65929e-015 -3.10104e-014
lhumerus -34.4589 8.58882 84.7989
lradius 66.6307
lwrist 30.1513
lhand -11.7135 62.6989
lfingers 7.12502
lthumb 14.3331 -92.1841
rfemur 2.59197 4.60374 34.1215
rtibia 24.9295
rfoot -17.7933 -8.64384
rtoes 23.2903
lfemur -27.423 -0.767021 -15.1556
ltibia 50.8633
lfoot -6.37609 4.33647
ltoes -23.2095
383
root -0.362713 18.1475 41.8557 -2.9136 -6.00597 -2.84331
lowerback 17.2231 0.439751 2.94493
upperback -0.973073 1.43875 2.28569
thorax -10.7681 0.588982 0.451747
lowerneck -10.945 2.16346 0.562122
upperneck 28.511 4.32826 -4.68519
head 11.1413 1.46529 -1.25405
rclavicle -2.58917e-014 -2.94201e-014
rhumerus -33.5873 -17.6945 -77.1074
rradius 29.3861
rwrist 4.24767
rhand -2.5936 9.75577
rfingers 7.12502
rthumb 23.1039 -18.879
lclavicle -2.58917e-014 -2.94201e-014
lhumerus -34.7795 9.34779 84.2903
lradius 66.4987
lwrist 30.6469
lhand -11.4126 62.3144
lfingers 7.12502
lthumb 14.623 -91.7788
rfemur 3.54775 3.77011 33.5185
rtibia 24.2806
rfoot -17.9595 -8.41322
rtoes 19.3736
lfemur -27.6711 -1.35639 -15.594
ltibia 48.2826
lfoot -6.72177 4.65674
ltoes -22.7378
